# xmcd CD database file
#
# Track frame offsets:
#	150
#	20814
#	38295
#	53730
#	72994
#	101180
#	119057
#	135786
#	155904
#	174404
#	195450
#	217904
#
# Disc length: 2973 seconds
#
# Revision: 0
# Processed by: cddbd v1.5.2PL0 Copyright (c) Steve Scherf et al.
# Submitted via: CDex 1.51
#
DISCID=a40b9b0c
DTITLE=Taylor Project - "The Happiest Girl in the Whiole Wide Street"
DYEAR=2008
DGENRE=Country
TTITLE0=Dont' Cry for me, Wangaratta
TTITLE1=Ballarat on a Good Day
TTITLE2=Prowl Around the Block
TTITLE3=Making Other Plans
TTITLE4=Love in a Small Town
TTITLE5=Animals (They Dream in Black and White)
TTITLE6=Rachel and the other Boys and Girls
TTITLE7=Caroline Springs to Mind
TTITLE8=Ballad in Past Tense
TTITLE9=Jonah and the Whale
TTITLE10=The Happiest Girl in the Whole Wide Street
TTITLE11=Bonus Track
EXTD=YEAR: 2008
EXTT0=
EXTT1=
EXTT2=
EXTT3=
EXTT4=
EXTT5=
EXTT6=
EXTT7=
EXTT8=
EXTT9=
EXTT10=
EXTT11=
PLAYORDER=
